<svg width="39" height="45" viewBox="0 0 39 45" fill="none" xmlns="http://www.w3.org/2000/svg">
<path d="M21.4318 9.09091V16.3636H0.409091V9.09091H21.4318ZM5.18182 0.727272H14.8636V33.2727C14.8636 34.1667 15 34.8636 15.2727 35.3636C15.5455 35.8485 15.9242 36.1894 16.4091 36.3864C16.9091 36.5833 17.4848 36.6818 18.1364 36.6818C18.5909 36.6818 19.0455 36.6439 19.5 36.5682C19.9545 36.4773 20.303 36.4091 20.5455 36.3636L22.0682 43.5682C21.5833 43.7197 20.9015 43.8939 20.0227 44.0909C19.1439 44.303 18.0758 44.4318 16.8182 44.4773C14.4848 44.5682 12.4394 44.2576 10.6818 43.5455C8.93939 42.8333 7.58333 41.7273 6.61364 40.2273C5.64394 38.7273 5.16667 36.8333 5.18182 34.5455V0.727272Z" fill="black"/>
<path d="M33.3977 44.5909C31.8977 44.5909 30.6098 44.0606 29.5341 43C28.4735 41.9242 27.9432 40.6364 27.9432 39.1364C27.9432 37.6515 28.4735 36.3788 29.5341 35.3182C30.6098 34.2576 31.8977 33.7273 33.3977 33.7273C34.8523 33.7273 36.125 34.2576 37.2159 35.3182C38.3068 36.3788 38.8523 37.6515 38.8523 39.1364C38.8523 40.1364 38.5947 41.053 38.0795 41.8864C37.5795 42.7045 36.9205 43.3636 36.1023 43.8636C35.2841 44.3485 34.3826 44.5909 33.3977 44.5909Z" fill="#EC364B"/>
</svg>
